<svg width="222" height="78" viewBox="0 0 222 78" fill="none" xmlns="http://www.w3.org/2000/svg">
<rect width="222" height="78" rx="2" fill="black"/>
<g clip-path="url(#clip0_530_414)">
<path d="M74.4732 23C74.8417 23 75.1923 23.1506 75.5173 23.4318C75.9069 23.7772 76.1061 24.168 76.1061 24.6209C76.1061 25.0748 75.9102 25.4866 75.5173 25.8321C75.1923 26.1343 74.8417 26.286 74.4732 26.286C72.1903 26.286 70.2101 27.0643 68.6016 28.6641C66.9943 30.264 66.2107 32.2325 66.2107 34.5043V34.5907H72.6266C73.083 34.5907 73.4748 34.7412 73.8009 35.0645C74.1048 35.3889 74.2573 35.7797 74.2573 36.2115C74.2573 36.6655 74.1048 37.0552 73.8009 37.3796C73.6482 37.5343 73.4652 37.6562 73.2632 37.7377C73.0612 37.8192 72.8445 37.8586 72.6266 37.8534H66.2096V52.1522C66.2096 52.6482 66.0571 53.0401 65.7532 53.3202C65.4282 53.6435 65.0353 53.7741 64.5578 53.7741C64.1014 53.7741 63.7096 53.6435 63.3835 53.3202C63.2249 53.1694 63.0989 52.9881 63.0132 52.7873C62.9274 52.5865 62.8837 52.3704 62.8848 52.1522V34.1832C62.8848 32.6056 63.2744 31.1541 63.8643 29.8344C64.452 28.5169 65.298 27.3267 66.4077 26.245C68.6651 24.0817 71.3621 23 74.4944 23H74.4732Z" fill="url(#paint0_linear_530_414)"/>
<path d="M80.9326 31.1564C81.4102 31.1564 81.8676 31.3723 82.2806 31.8284C82.3452 31.9358 82.4108 32.0653 82.4754 32.2159C82.5411 32.3676 82.5622 32.5613 82.5622 32.8027V52.1622C82.5622 52.3991 82.54 52.594 82.4754 52.7468C82.4212 52.8853 82.3486 53.016 82.2595 53.1354C81.8476 53.5672 81.4102 53.7853 80.9549 53.7853C80.5431 53.7853 80.1702 53.5915 79.8451 53.2893C79.4979 52.966 79.3242 52.5962 79.3242 52.1434V32.7761C79.3242 32.3233 79.4979 31.9757 79.8451 31.6513C80.1702 31.3501 80.5419 31.1553 80.9549 31.1553L80.9326 31.1564Z" fill="url(#paint1_linear_530_414)"/>
<path d="M94.6788 31.7397C97.1577 31.7397 99.2893 32.6266 101.074 34.3991C102.837 36.1517 103.726 38.2719 103.726 40.7375V52.2042C103.726 52.4411 103.704 52.657 103.639 52.8319C103.566 53.0172 103.447 53.1807 103.292 53.3069C103.01 53.6302 102.616 53.7819 102.118 53.7819C101.619 53.7819 101.226 53.6091 100.943 53.2847C100.662 52.9615 100.509 52.5917 100.509 52.2042V40.7397C100.509 39.1166 99.9427 37.7327 98.7906 36.6079C97.6374 35.483 96.2683 34.9195 94.6788 34.9195C93.0927 34.9195 91.7213 35.4841 90.5682 36.6079C89.4373 37.7327 88.8707 39.1166 88.8707 40.7397V52.2064C88.8707 52.6814 88.7193 53.05 88.4143 53.3091C88.1116 53.6335 87.7175 53.7852 87.2411 53.7852C87.0241 53.7852 86.8293 53.763 86.6523 53.6977C86.4535 53.6165 86.281 53.4824 86.1536 53.3102C85.8498 53.0722 85.6973 52.7024 85.6973 52.2064V40.6102C85.6973 38.1889 86.6122 36.1119 88.3965 34.3581C90.1586 32.6055 92.269 31.742 94.7256 31.742H94.6788V31.7397Z" fill="url(#paint2_linear_530_414)"/>
<path d="M124.102 49.0234V49.0666C124.21 49.2172 124.296 49.3689 124.34 49.5416C124.384 49.7143 124.406 49.9081 124.406 50.1483C124.383 50.6443 124.166 51.0141 123.773 51.23L123.796 51.2078C121.794 52.8542 119.488 53.6735 116.859 53.6735C113.835 53.6735 111.204 52.635 109.029 50.4716C106.854 48.3082 105.789 45.6921 105.789 42.6851C105.789 39.6338 106.877 37.0386 109.029 34.9196C111.227 32.7772 113.835 31.6956 116.859 31.6956C118.12 31.6956 119.337 31.9114 120.511 32.3244C121.685 32.7341 122.752 33.3208 123.73 34.0781C123.926 34.2287 124.077 34.4014 124.186 34.5741C124.294 34.7468 124.359 34.9838 124.402 35.2893C124.402 35.4831 124.359 35.6768 124.294 35.8739C124.23 36.0638 124.142 36.2452 124.034 36.4142C123.911 36.5592 123.764 36.6827 123.6 36.7796C123.418 36.879 123.217 36.9383 123.011 36.9534H122.795C122.469 36.9534 122.14 36.8449 121.815 36.608C121.102 36.0666 120.31 35.6366 119.467 35.3325C118.645 35.0344 117.777 34.8807 116.902 34.8786C114.748 34.8786 112.9 35.637 111.356 37.1715C109.813 38.706 109.052 40.5461 109.052 42.6873C109.052 44.8506 109.813 46.6907 111.356 48.2031C112.877 49.7165 114.727 50.4749 116.902 50.4749C118.794 50.4749 120.446 49.8892 121.862 48.7433C122.165 48.5053 122.472 48.3758 122.797 48.3758H123.014C123.471 48.4411 123.841 48.657 124.123 49.0257H124.101L124.102 49.0234Z" fill="url(#paint3_linear_530_414)"/>
<path d="M139.625 50.5391C140.037 50.5613 140.409 50.734 140.713 51.0362C141.038 51.3374 141.212 51.7072 141.212 52.16C141.212 52.636 141.038 53.0258 140.713 53.328C140.387 53.6524 140.016 53.7819 139.582 53.7819H139.473C136.406 53.7819 133.754 52.7213 131.514 50.5369C129.296 48.3514 128.078 45.7109 128.078 42.6208V24.7737C128.078 24.3198 128.231 23.93 128.556 23.6057C128.71 23.4531 128.893 23.3326 129.095 23.2511C129.297 23.1695 129.512 23.1286 129.73 23.1307C130.142 23.1307 130.535 23.2824 130.882 23.6068C131.208 23.9721 131.36 24.364 131.36 24.7737V42.3861C131.36 43.4899 131.555 44.5063 131.948 45.4584C132.339 46.4106 132.906 47.2764 133.624 48.0536L133.927 48.3127C134.037 48.399 134.123 48.4854 134.188 48.5717C134.297 48.7013 134.405 48.7876 134.513 48.8518C134.535 48.874 134.556 48.8961 134.556 48.9172C134.579 48.9393 134.643 48.9814 134.752 49.0467C134.817 49.1109 134.882 49.1541 134.947 49.1973L135.1 49.2836L135.425 49.4774C135.534 49.5427 135.619 49.6069 135.685 49.6722L136.274 49.866L136.862 50.0608L137.624 50.2324L138.343 50.4273L139.603 50.5137L139.625 50.5391Z" fill="url(#paint4_linear_530_414)"/>
<path d="M163.723 52.1821C163.723 52.6349 163.571 53.0047 163.267 53.3069C163.121 53.4592 162.946 53.5799 162.751 53.6614C162.556 53.743 162.347 53.7836 162.136 53.7808C161.659 53.7808 161.265 53.6302 160.94 53.349C160.656 53.0266 160.501 52.611 160.506 52.1821V50.5147C160.202 50.7948 159.853 51.1004 159.462 51.4027C159.071 51.7049 158.722 51.9452 158.418 52.1389C157.548 52.6814 156.634 53.091 155.677 53.3712C154.719 53.6524 153.719 53.7808 152.653 53.7808C149.586 53.7808 146.978 52.7002 144.803 50.5369C142.628 48.3514 141.562 45.7573 141.562 42.7492C141.562 39.7422 142.628 37.1471 144.803 34.9627C146.978 32.7772 149.586 31.7177 152.653 31.7177C155.72 31.7177 158.372 32.7772 160.525 34.9616C162.7 37.1471 163.767 39.7422 163.767 42.7492V52.2253L163.723 52.1821ZM158.24 48.2894C159.783 46.7549 160.544 44.9148 160.544 42.7736C160.544 40.6324 159.783 38.7713 158.24 37.1936C156.718 35.6801 154.847 34.9217 152.65 34.9217C150.476 34.9217 148.604 35.658 147.083 37.1925C145.518 38.7713 144.778 40.6534 144.778 42.7514C144.778 44.8716 145.518 46.7117 147.083 48.2894C148.626 49.8239 150.476 50.5823 152.65 50.5823C154.847 50.5823 156.718 49.8239 158.24 48.2905V48.2894Z" fill="url(#paint5_linear_530_414)"/>
<path d="M183.779 44.6535C184.148 45.3255 184.325 46.167 184.325 47.2055V47.6373C184.325 47.7878 184.325 47.9395 184.303 48.069C184.259 48.5008 184.151 48.9348 183.955 49.3876C183.76 49.8416 183.5 50.2756 183.172 50.6852C182.341 51.7458 181.247 52.573 179.997 53.0855C178.714 53.628 177.19 53.8871 175.43 53.8871C173.624 53.8871 171.973 53.4985 170.47 52.6537C169.734 52.2451 169.054 51.7439 168.447 51.1624C167.849 50.5937 167.343 49.9368 166.947 49.2149H166.969C166.802 48.9726 166.712 48.6862 166.709 48.3923V48.1554C166.715 48.0659 166.736 47.9781 166.774 47.8963C166.839 47.7026 166.926 47.5299 167.034 47.3782C167.167 47.2115 167.338 47.0786 167.533 46.9907L167.512 47.0117C167.741 46.8491 168.014 46.7588 168.295 46.7526C168.49 46.7526 168.664 46.7958 168.816 46.86V46.8379C169.011 46.9043 169.184 47.0117 169.337 47.1413C169.488 47.2708 169.619 47.4214 169.727 47.5941C170.009 48.048 170.338 48.4599 170.706 48.8485C171.075 49.236 171.511 49.5626 172.011 49.8438C172.53 50.1239 173.076 50.3398 173.618 50.4937C174.186 50.6438 174.771 50.7164 175.359 50.7096C176.533 50.7096 177.556 50.5369 178.427 50.1914C179.297 49.846 179.992 49.3688 180.492 48.7643C180.775 48.3979 180.927 48.0934 180.97 47.8565V47.7258C180.992 47.6184 181.013 47.511 181.013 47.4025V47.1435C181.013 46.9497 181.013 46.777 180.992 46.6253C180.975 46.4889 180.93 46.3573 180.862 46.2378C180.666 45.9134 180.317 45.5226 179.774 45.1561C179.384 44.8749 178.795 44.7022 178.077 44.5483C177.358 44.3978 176.512 44.3335 175.511 44.3335C174.142 44.3335 172.946 44.204 171.924 43.9449C170.901 43.6859 170.074 43.3161 169.424 42.8411C168.956 42.4984 168.519 42.1149 168.119 41.6952C167.781 41.3491 167.494 40.9556 167.27 40.5272C166.988 39.9415 166.815 39.1654 166.858 38.1911L166.879 37.6276C166.902 37.2179 167.01 36.7839 167.205 36.33C167.411 35.8601 167.674 35.4173 167.989 35.0114C168.816 33.9508 169.881 33.1503 171.165 32.6111C172.447 32.0686 173.971 31.7885 175.709 31.7885C176.866 31.7849 178.014 31.9827 179.102 32.3731C180.169 32.7531 181.168 33.3015 182.06 33.9973C182.256 34.1478 182.407 34.2995 182.516 34.4512C182.624 34.6018 182.69 34.8387 182.711 35.1653C182.713 35.362 182.691 35.5583 182.646 35.7499C182.599 35.927 182.51 36.0902 182.386 36.2259C182.26 36.3969 182.097 36.537 181.908 36.6356C181.686 36.7485 181.439 36.8073 181.189 36.8072C180.8 36.8293 180.449 36.6998 180.167 36.5049C180.145 36.5049 180.124 36.4839 180.103 36.4618C178.863 35.4244 177.426 34.9062 175.796 34.9062C174.6 34.9062 173.578 35.0789 172.729 35.4244C171.88 35.7687 171.208 36.247 170.684 36.8504V36.8282C170.402 37.1958 170.251 37.5003 170.229 37.7383V37.9974C170.229 38.5609 170.251 38.9274 170.315 39.1001V39.0569C170.489 39.3813 170.861 39.75 171.424 40.1386C171.837 40.3976 172.404 40.6135 173.123 40.7674C173.953 40.9326 174.797 41.012 175.644 41.0044C176.992 41.0044 178.188 41.1339 179.21 41.3708C180.232 41.6089 181.081 41.9576 181.754 42.4104C182.21 42.7337 182.603 43.0814 182.95 43.4268C183.296 43.7722 183.581 44.142 183.798 44.5085H183.777V44.6535H183.779Z" fill="url(#paint6_linear_530_414)"/>
<path d="M203.454 44.6535C203.823 45.3255 204 46.1669 204 47.2054V47.6372C204 47.7878 204 47.9395 203.977 48.069C203.934 48.5008 203.826 48.9348 203.63 49.3876C203.435 49.8415 203.175 50.2755 202.846 50.6852C202.019 51.7447 200.954 52.5463 199.671 53.0855C198.389 53.628 196.865 53.887 195.105 53.887C193.298 53.887 191.647 53.4984 190.145 52.6537C189.409 52.2453 188.728 51.7441 188.121 51.1623C187.524 50.5936 187.018 49.9368 186.622 49.2149H186.643C186.477 48.9722 186.387 48.6859 186.384 48.3923V48.1553C186.389 48.0658 186.411 47.978 186.448 47.8963C186.514 47.7025 186.6 47.5298 186.709 47.3781C186.817 47.2276 186.99 47.098 187.207 46.9906L187.186 47.0117C187.447 46.839 187.706 46.7526 187.97 46.7526C188.165 46.7526 188.338 46.7958 188.491 46.86V46.8378C188.686 46.9043 188.859 47.0117 189.011 47.1412C189.163 47.2707 189.293 47.4213 189.401 47.594C189.684 48.048 190.011 48.4598 190.381 48.8484C190.749 49.2359 191.186 49.5625 191.684 49.8437C192.195 50.1176 192.735 50.3355 193.293 50.4936C193.861 50.6438 194.446 50.7164 195.034 50.7095C196.208 50.7095 197.231 50.5368 198.101 50.1914C198.972 49.846 199.665 49.3688 200.167 48.7643C200.449 48.3978 200.601 48.0933 200.645 47.8564V47.7258C200.666 47.6184 200.688 47.511 200.688 47.4025V47.1434C200.688 46.9497 200.688 46.777 200.666 46.6253C200.649 46.4886 200.605 46.3568 200.536 46.2378C200.341 45.9134 199.991 45.5226 199.449 45.1561C199.059 44.8749 198.47 44.7022 197.751 44.5483C197.033 44.3977 196.187 44.3335 195.186 44.3335C193.816 44.3335 192.62 44.204 191.599 43.9449C190.576 43.6858 189.749 43.316 189.098 42.8411C188.63 42.4978 188.193 42.1144 187.793 41.6952C187.455 41.349 187.169 40.9555 186.945 40.5271C186.663 39.9415 186.49 39.1653 186.533 38.1911L186.554 37.6275C186.576 37.2179 186.684 36.7839 186.879 36.33C187.075 35.876 187.335 35.4431 187.664 35.0113C188.491 33.9507 189.556 33.1502 190.838 32.6111C192.122 32.0686 193.646 31.7885 195.384 31.7885C196.557 31.7885 197.688 31.9822 198.776 32.373C199.863 32.7616 200.843 33.303 201.734 33.9972C201.93 34.1478 202.082 34.2995 202.191 34.4511C202.299 34.6017 202.363 34.8386 202.386 35.1652C202.386 35.3811 202.363 35.5749 202.321 35.7498C202.274 35.9269 202.184 36.0901 202.061 36.2259C201.935 36.3969 201.772 36.537 201.583 36.6355C201.36 36.7485 201.114 36.8073 200.864 36.8071C200.499 36.8233 200.139 36.7168 199.842 36.5049C199.82 36.5049 199.799 36.4838 199.777 36.4617C198.538 35.4243 197.101 34.9062 195.471 34.9062C194.275 34.9062 193.253 35.0789 192.403 35.4243C191.555 35.7686 190.882 36.2469 190.359 36.8503V36.8282C190.077 37.1957 189.925 37.5002 189.903 37.7382V37.9973C189.903 38.5608 189.925 38.9273 189.99 39.1V39.0568C190.164 39.3812 190.536 39.7499 191.099 40.1385C191.512 40.3976 192.078 40.6135 192.796 40.7674C193.515 40.918 194.361 41.0043 195.319 41.0043C196.667 41.0043 197.862 41.1338 198.885 41.3708C199.907 41.6088 200.756 41.9576 201.428 42.4104C201.884 42.7337 202.278 43.0813 202.624 43.4267C202.971 43.7722 203.256 44.142 203.473 44.5084H203.451V44.6535H203.454Z" fill="url(#paint7_linear_530_414)"/>
<path d="M80.9142 26.3823C81.3599 26.3823 81.7875 26.2061 82.1027 25.8926C82.4179 25.5791 82.5949 25.1539 82.5949 24.7105C82.5949 24.2671 82.4179 23.8419 82.1027 23.5284C81.7875 23.2148 81.3599 23.0387 80.9142 23.0387C80.4684 23.0387 80.0409 23.2148 79.7257 23.5284C79.4105 23.8419 79.2334 24.2671 79.2334 24.7105C79.2334 25.1539 79.4105 25.5791 79.7257 25.8926C80.0409 26.2061 80.4684 26.3823 80.9142 26.3823Z" fill="url(#paint8_linear_530_414)"/>
<path fill-rule="evenodd" clip-rule="evenodd" d="M48.1667 38.5C48.1667 47.0604 41.1898 54 32.5833 54C23.9769 54 17 47.0604 17 38.5C17 29.9396 23.9769 23 32.5833 23C41.1898 23 48.1667 29.9396 48.1667 38.5ZM38.052 27.9312L38.5005 27.9987C38.5472 28.0053 38.591 28.0247 38.6272 28.0547C38.6633 28.0848 38.6901 28.1244 38.7048 28.1689C38.7194 28.2134 38.7211 28.2611 38.7098 28.3066C38.6985 28.3521 38.6746 28.3935 38.6408 28.4261L37.1381 29.8897C37.1034 29.9232 37.0599 29.9462 37.0126 29.956C36.9653 29.9658 36.9162 29.962 36.871 29.9451L36.7363 29.8931C36.4328 29.7704 36.1088 29.7058 35.7813 29.7026C35.0722 29.7026 34.588 29.9252 34.3064 30.3857C34.0793 30.7577 33.7621 31.6291 33.5629 33.6695L33.5295 33.9961C33.5259 34.0308 33.5297 34.0659 33.5406 34.099C33.5515 34.1322 33.5692 34.1627 33.5927 34.1886C33.6162 34.2145 33.645 34.2351 33.677 34.2493C33.7091 34.2634 33.7437 34.2707 33.7788 34.2707H36.6372C36.8621 34.2707 36.9745 34.5431 36.8131 34.7014L35.434 36.0344C35.411 36.0571 35.3837 36.075 35.3537 36.0872C35.3237 36.0993 35.2916 36.1055 35.2592 36.1052H33.535C33.4724 36.1052 33.412 36.1283 33.3655 36.17C33.3191 36.2117 33.2898 36.2691 33.2835 36.3311L32.728 41.8524C32.5856 43.3083 32.3674 44.3944 32.058 45.175C31.7429 45.9721 31.2287 46.6962 30.533 47.3272C29.5023 48.2639 28.3235 48.74 27.029 48.74C26.7362 48.74 26.389 48.6691 25.9682 48.5252L25.6098 48.4034C25.5682 48.3894 25.531 48.3649 25.5019 48.3322C25.4728 48.2995 25.4528 48.2598 25.4439 48.217C25.435 48.1742 25.4375 48.1299 25.4512 48.0884C25.4649 48.0469 25.4892 48.0097 25.5219 47.9805L26.9199 46.7128C26.9533 46.6833 26.9939 46.663 27.0376 46.6539C27.0814 46.6448 27.1267 46.6471 27.1692 46.6607L27.295 46.7017C27.6274 46.8191 27.9764 46.8834 28.3291 46.8921C28.7799 46.8921 30.1624 46.8921 30.4707 43.904L30.671 42.0107L31.2287 36.3798C31.2318 36.345 31.2276 36.31 31.2163 36.2769C31.2051 36.2439 31.1871 36.2135 31.1635 36.1876C31.1398 36.1618 31.1111 36.1412 31.079 36.127C31.0469 36.1128 31.0122 36.1054 30.9771 36.1052H29.8607C29.8111 36.1056 29.7626 36.0914 29.7212 36.0643C29.6797 36.0373 29.6473 35.9986 29.628 35.9532C29.6087 35.9078 29.6034 35.8577 29.6127 35.8093C29.622 35.7609 29.6456 35.7163 29.6804 35.6812L30.9961 34.3471C31.0195 34.3231 31.0475 34.3039 31.0785 34.2908C31.1094 34.2777 31.1427 34.2709 31.1764 34.2707H31.4446L31.448 34.2552C31.6394 32.2823 32.2271 30.7124 33.1955 29.5908C34.1918 28.4339 35.4941 27.8493 37.0669 27.8493C37.3596 27.8493 37.6902 27.8759 38.052 27.9312Z" fill="url(#paint9_linear_530_414)"/>
</g>
<defs>
<linearGradient id="paint0_linear_530_414" x1="69.491" y1="61.1322" x2="69.491" y2="21.3371" gradientUnits="userSpaceOnUse">
<stop stop-color="#0093DC"/>
<stop offset="1" stop-color="#00E7F9"/>
</linearGradient>
<linearGradient id="paint1_linear_530_414" x1="80.9427" y1="61.1323" x2="80.9427" y2="21.3371" gradientUnits="userSpaceOnUse">
<stop stop-color="#0093DC"/>
<stop offset="1" stop-color="#00E7F9"/>
</linearGradient>
<linearGradient id="paint2_linear_530_414" x1="94.7111" y1="61.1322" x2="94.7111" y2="21.337" gradientUnits="userSpaceOnUse">
<stop stop-color="#0093DC"/>
<stop offset="1" stop-color="#00E7F9"/>
</linearGradient>
<linearGradient id="paint3_linear_530_414" x1="115.097" y1="61.1323" x2="115.097" y2="21.3371" gradientUnits="userSpaceOnUse">
<stop stop-color="#0093DC"/>
<stop offset="1" stop-color="#00E7F9"/>
</linearGradient>
<linearGradient id="paint4_linear_530_414" x1="134.644" y1="61.1323" x2="134.644" y2="21.3371" gradientUnits="userSpaceOnUse">
<stop stop-color="#0093DC"/>
<stop offset="1" stop-color="#00E7F9"/>
</linearGradient>
<linearGradient id="paint5_linear_530_414" x1="152.662" y1="61.1322" x2="152.662" y2="21.3371" gradientUnits="userSpaceOnUse">
<stop stop-color="#0093DC"/>
<stop offset="1" stop-color="#00E7F9"/>
</linearGradient>
<linearGradient id="paint6_linear_530_414" x1="175.515" y1="61.1322" x2="175.515" y2="21.3371" gradientUnits="userSpaceOnUse">
<stop stop-color="#0093DC"/>
<stop offset="1" stop-color="#00E7F9"/>
</linearGradient>
<linearGradient id="paint7_linear_530_414" x1="195.188" y1="61.1322" x2="195.188" y2="21.337" gradientUnits="userSpaceOnUse">
<stop stop-color="#0093DC"/>
<stop offset="1" stop-color="#00E7F9"/>
</linearGradient>
<linearGradient id="paint8_linear_530_414" x1="80.9131" y1="61.1322" x2="80.9131" y2="21.337" gradientUnits="userSpaceOnUse">
<stop stop-color="#0093DC"/>
<stop offset="1" stop-color="#00E7F9"/>
</linearGradient>
<linearGradient id="paint9_linear_530_414" x1="32.5833" y1="53.9989" x2="32.5833" y2="22.9989" gradientUnits="userSpaceOnUse">
<stop stop-color="#0093DC"/>
<stop offset="1" stop-color="#00E7F9"/>
</linearGradient>
<clipPath id="clip0_530_414">
<rect width="187" height="31" fill="white" transform="translate(17 23)"/>
</clipPath>
</defs>
</svg>
